<mxfile host="app.diagrams.net" agent="Mozilla/5.0 (Windows NT 10.0; Win64; x64) AppleWebKit/537.36 (KHTML, like Gecko) Chrome/130.0.0.0 Safari/537.36" version="24.8.3">
  <diagram id="C5RBs43oDa-KdzZeNtuy" name="Page-1">
    <mxGraphModel dx="3436" dy="1892" grid="0" gridSize="10" guides="1" tooltips="1" connect="1" arrows="1" fold="1" page="0" pageScale="1" pageWidth="827" pageHeight="1169" background="none" math="0" shadow="0">
      <root>
        <mxCell id="WIyWlLk6GJQsqaUBKTNV-0" />
        <mxCell id="WIyWlLk6GJQsqaUBKTNV-1" parent="WIyWlLk6GJQsqaUBKTNV-0" />
        <mxCell id="zkfFHV4jXpPFQw0GAbJ--0" value="" style="swimlane;fontStyle=2;align=center;verticalAlign=top;childLayout=stackLayout;horizontal=1;startSize=26;horizontalStack=0;resizeParent=1;resizeLast=0;collapsible=1;marginBottom=0;rounded=0;shadow=0;strokeWidth=1;labelBackgroundColor=none;fillColor=#FFE45E;strokeColor=#FF6392;fontColor=#5AA9E6;swimlaneFillColor=default;" parent="WIyWlLk6GJQsqaUBKTNV-1" vertex="1">
          <mxGeometry x="720" y="-160" width="440" height="360" as="geometry">
            <mxRectangle x="230" y="140" width="160" height="26" as="alternateBounds" />
          </mxGeometry>
        </mxCell>
        <mxCell id="zkfFHV4jXpPFQw0GAbJ--4" value="" style="line;html=1;strokeWidth=1;align=left;verticalAlign=middle;spacingTop=-1;spacingLeft=3;spacingRight=3;rotatable=0;labelPosition=right;points=[];portConstraint=eastwest;labelBackgroundColor=none;fillColor=#FFE45E;strokeColor=#FF6392;fontColor=#5AA9E6;" parent="zkfFHV4jXpPFQw0GAbJ--0" vertex="1">
          <mxGeometry y="26" width="440" height="8" as="geometry" />
        </mxCell>
        <mxCell id="IDmX4y72MfIabGnM_uea-2" value="&lt;font color=&quot;#ff0000&quot; style=&quot;font-size: 22px;&quot;&gt;&lt;b&gt;&lt;u&gt;ORDER&lt;br&gt;&lt;br&gt;&lt;/u&gt;&lt;/b&gt;&lt;/font&gt;&lt;div style=&quot;font-size: 22px;&quot;&gt;&lt;font style=&quot;font-size: 22px;&quot;&gt;-sandwiches: List&amp;lt;Sandwich&amp;gt;&lt;/font&gt;&lt;/div&gt;&lt;div style=&quot;font-size: 22px;&quot;&gt;&lt;font style=&quot;font-size: 22px;&quot;&gt;-drinks: List&amp;lt;Drink&amp;gt;&lt;/font&gt;&lt;/div&gt;&lt;div style=&quot;font-size: 22px;&quot;&gt;&lt;font style=&quot;font-size: 22px;&quot;&gt;-chips: List&amp;lt;Chips&amp;gt;&lt;/font&gt;&lt;/div&gt;&lt;div style=&quot;font-size: 22px;&quot;&gt;&lt;font style=&quot;font-size: 22px;&quot;&gt;+ Order()&lt;/font&gt;&lt;/div&gt;&lt;div style=&quot;font-size: 22px;&quot;&gt;&lt;font style=&quot;font-size: 22px;&quot;&gt;+ addSandwich(sandwich: Sandwich): void&lt;/font&gt;&lt;/div&gt;&lt;div style=&quot;font-size: 22px;&quot;&gt;&lt;font style=&quot;font-size: 22px;&quot;&gt;+ addDrink(drink: Drink): void&lt;/font&gt;&lt;/div&gt;&lt;div style=&quot;font-size: 22px;&quot;&gt;&lt;font style=&quot;font-size: 22px;&quot;&gt;+ addChips(chip: Chips): void&lt;/font&gt;&lt;/div&gt;&lt;div style=&quot;font-size: 22px;&quot;&gt;&lt;font style=&quot;font-size: 22px;&quot;&gt;+ calculateTotal(): double&lt;/font&gt;&lt;/div&gt;&lt;div style=&quot;font-size: 22px;&quot;&gt;&lt;font style=&quot;font-size: 22px;&quot;&gt;+ displayOrder(): void&lt;/font&gt;&lt;/div&gt;" style="text;html=1;align=center;verticalAlign=middle;resizable=0;points=[];autosize=1;strokeColor=none;fillColor=none;fontSize=16;labelBackgroundColor=none;fontColor=#5AA9E6;" vertex="1" parent="zkfFHV4jXpPFQw0GAbJ--0">
          <mxGeometry y="34" width="440" height="302" as="geometry" />
        </mxCell>
        <mxCell id="zkfFHV4jXpPFQw0GAbJ--6" value="" style="swimlane;fontStyle=0;align=center;verticalAlign=top;childLayout=stackLayout;horizontal=1;startSize=26;horizontalStack=0;resizeParent=1;resizeLast=0;collapsible=1;marginBottom=0;rounded=0;shadow=0;strokeWidth=1;labelBackgroundColor=none;fillColor=#FFE45E;strokeColor=#FF6392;fontColor=#5AA9E6;swimlaneFillColor=default;" parent="WIyWlLk6GJQsqaUBKTNV-1" vertex="1">
          <mxGeometry x="20" y="410" width="445" height="346" as="geometry">
            <mxRectangle x="130" y="380" width="160" height="26" as="alternateBounds" />
          </mxGeometry>
        </mxCell>
        <mxCell id="zkfFHV4jXpPFQw0GAbJ--9" value="" style="line;html=1;strokeWidth=1;align=left;verticalAlign=middle;spacingTop=-1;spacingLeft=3;spacingRight=3;rotatable=0;labelPosition=right;points=[];portConstraint=eastwest;labelBackgroundColor=none;fillColor=#FFE45E;strokeColor=#FF6392;fontColor=#5AA9E6;" parent="zkfFHV4jXpPFQw0GAbJ--6" vertex="1">
          <mxGeometry y="26" width="445" height="8" as="geometry" />
        </mxCell>
        <mxCell id="IDmX4y72MfIabGnM_uea-11" value="&lt;font color=&quot;#ff0000&quot; style=&quot;font-size: 26px;&quot;&gt;&lt;b&gt;&lt;u&gt;Sandwich&lt;br&gt;&lt;br&gt;&lt;/u&gt;&lt;/b&gt;&lt;/font&gt;&lt;div style=&quot;font-size: 22px;&quot;&gt;&lt;font style=&quot;font-size: 22px;&quot;&gt;-size: String&lt;/font&gt;&lt;/div&gt;&lt;div style=&quot;font-size: 22px;&quot;&gt;&lt;font style=&quot;font-size: 22px;&quot;&gt;-breadType: String&lt;/font&gt;&lt;/div&gt;&lt;div style=&quot;font-size: 22px;&quot;&gt;&lt;font style=&quot;font-size: 22px;&quot;&gt;-toppings: List&amp;lt;Topping&amp;gt;&lt;/font&gt;&lt;/div&gt;&lt;div style=&quot;font-size: 22px;&quot;&gt;&lt;font style=&quot;font-size: 22px;&quot;&gt;-toasted: boolean&lt;/font&gt;&lt;/div&gt;&lt;div style=&quot;font-size: 22px;&quot;&gt;&lt;font style=&quot;font-size: 22px;&quot;&gt;-basePrice: double&lt;/font&gt;&lt;/div&gt;&lt;div style=&quot;font-size: 22px;&quot;&gt;&lt;font style=&quot;font-size: 22px;&quot;&gt;+ Sandwich(size: String, breadType: String)&lt;/font&gt;&lt;/div&gt;&lt;div style=&quot;font-size: 22px;&quot;&gt;&lt;font style=&quot;font-size: 22px;&quot;&gt;+ addTopping(topping: Topping): void&lt;/font&gt;&lt;/div&gt;&lt;div style=&quot;font-size: 22px;&quot;&gt;&lt;font style=&quot;font-size: 22px;&quot;&gt;+ calculatePrice(): double&lt;/font&gt;&lt;/div&gt;&lt;div style=&quot;font-size: 22px;&quot;&gt;&lt;font style=&quot;font-size: 22px;&quot;&gt;+ displayDetails(): void&lt;/font&gt;&lt;/div&gt;" style="text;html=1;align=center;verticalAlign=middle;resizable=0;points=[];autosize=1;strokeColor=none;fillColor=none;fontSize=16;labelBackgroundColor=none;fontColor=#5AA9E6;" vertex="1" parent="zkfFHV4jXpPFQw0GAbJ--6">
          <mxGeometry y="34" width="445" height="312" as="geometry" />
        </mxCell>
        <mxCell id="zkfFHV4jXpPFQw0GAbJ--12" value="" style="endArrow=block;endSize=10;endFill=0;shadow=0;strokeWidth=9;rounded=0;curved=1;edgeStyle=elbowEdgeStyle;elbow=vertical;labelBackgroundColor=none;strokeColor=#FF6392;fontColor=default;" parent="WIyWlLk6GJQsqaUBKTNV-1" source="zkfFHV4jXpPFQw0GAbJ--6" target="zkfFHV4jXpPFQw0GAbJ--0" edge="1">
          <mxGeometry width="160" relative="1" as="geometry">
            <mxPoint x="200" y="203" as="sourcePoint" />
            <mxPoint x="200" y="203" as="targetPoint" />
            <Array as="points">
              <mxPoint x="-284" y="68" />
            </Array>
          </mxGeometry>
        </mxCell>
        <mxCell id="IDmX4y72MfIabGnM_uea-23" style="edgeStyle=orthogonalEdgeStyle;rounded=0;orthogonalLoop=1;jettySize=auto;html=1;strokeWidth=6;curved=1;fillColor=#bac8d3;strokeColor=#23445d;" edge="1" parent="WIyWlLk6GJQsqaUBKTNV-1" source="zkfFHV4jXpPFQw0GAbJ--13">
          <mxGeometry relative="1" as="geometry">
            <mxPoint x="1059.571428571429" y="212.57142857142867" as="targetPoint" />
            <Array as="points">
              <mxPoint x="606" y="622" />
              <mxPoint x="606" y="330" />
              <mxPoint x="1060" y="330" />
            </Array>
          </mxGeometry>
        </mxCell>
        <mxCell id="zkfFHV4jXpPFQw0GAbJ--13" value="" style="swimlane;fontStyle=0;align=center;verticalAlign=top;childLayout=stackLayout;horizontal=1;startSize=26;horizontalStack=0;resizeParent=1;resizeLast=0;collapsible=1;marginBottom=0;rounded=0;shadow=0;strokeWidth=1;labelBackgroundColor=none;fillColor=#FFE45E;strokeColor=#FF6392;fontColor=#5AA9E6;swimlaneFillColor=default;" parent="WIyWlLk6GJQsqaUBKTNV-1" vertex="1">
          <mxGeometry x="782" y="446" width="438" height="351" as="geometry">
            <mxRectangle x="340" y="380" width="170" height="26" as="alternateBounds" />
          </mxGeometry>
        </mxCell>
        <mxCell id="zkfFHV4jXpPFQw0GAbJ--15" value="" style="line;html=1;strokeWidth=1;align=left;verticalAlign=middle;spacingTop=-1;spacingLeft=3;spacingRight=3;rotatable=0;labelPosition=right;points=[];portConstraint=eastwest;labelBackgroundColor=none;fillColor=#FFE45E;strokeColor=#FF6392;fontColor=#5AA9E6;" parent="zkfFHV4jXpPFQw0GAbJ--13" vertex="1">
          <mxGeometry y="26" width="438" height="8" as="geometry" />
        </mxCell>
        <mxCell id="IDmX4y72MfIabGnM_uea-9" value="&lt;font color=&quot;#ff0000&quot; style=&quot;font-size: 26px;&quot;&gt;&lt;b style=&quot;&quot;&gt;&lt;u style=&quot;&quot;&gt;Chips&lt;br&gt;&lt;br&gt;&lt;/u&gt;&lt;/b&gt;&lt;/font&gt;&lt;div style=&quot;font-size: 26px;&quot;&gt;&lt;font style=&quot;font-size: 26px;&quot;&gt;-price: double&lt;/font&gt;&lt;/div&gt;&lt;div style=&quot;font-size: 22px;&quot;&gt;&lt;font style=&quot;font-size: 22px;&quot;&gt;+ Chips()&lt;/font&gt;&lt;/div&gt;&lt;div style=&quot;font-size: 22px;&quot;&gt;&lt;font style=&quot;font-size: 22px;&quot;&gt;+ calculatePrice(): double&lt;/font&gt;&lt;/div&gt;&lt;div style=&quot;font-size: 22px;&quot;&gt;&lt;font style=&quot;font-size: 22px;&quot;&gt;+ displayDetails(): void&lt;/font&gt;&lt;/div&gt;" style="text;html=1;align=center;verticalAlign=middle;resizable=0;points=[];autosize=1;strokeColor=none;fillColor=none;fontSize=16;labelBackgroundColor=none;fontColor=#5AA9E6;" vertex="1" parent="zkfFHV4jXpPFQw0GAbJ--13">
          <mxGeometry y="34" width="438" height="185" as="geometry" />
        </mxCell>
        <mxCell id="zkfFHV4jXpPFQw0GAbJ--17" value="" style="swimlane;fontStyle=0;align=center;verticalAlign=top;childLayout=stackLayout;horizontal=1;startSize=26;horizontalStack=0;resizeParent=1;resizeLast=0;collapsible=1;marginBottom=0;rounded=0;shadow=0;strokeWidth=1;labelBackgroundColor=none;fillColor=#FFE45E;strokeColor=#FF6392;fontColor=default;gradientColor=none;swimlaneFillColor=default;" parent="WIyWlLk6GJQsqaUBKTNV-1" vertex="1">
          <mxGeometry x="1411" y="446" width="437" height="353" as="geometry">
            <mxRectangle x="550" y="140" width="160" height="26" as="alternateBounds" />
          </mxGeometry>
        </mxCell>
        <mxCell id="zkfFHV4jXpPFQw0GAbJ--23" value="" style="line;html=1;strokeWidth=1;align=left;verticalAlign=middle;spacingTop=-1;spacingLeft=3;spacingRight=3;rotatable=0;labelPosition=right;points=[];portConstraint=eastwest;labelBackgroundColor=none;fillColor=#FFE45E;strokeColor=#FF6392;fontColor=#5AA9E6;" parent="zkfFHV4jXpPFQw0GAbJ--17" vertex="1">
          <mxGeometry y="26" width="437" height="8" as="geometry" />
        </mxCell>
        <mxCell id="IDmX4y72MfIabGnM_uea-5" value="&lt;font color=&quot;#ff0000&quot; style=&quot;font-size: 26px;&quot;&gt;&lt;b style=&quot;&quot;&gt;&lt;u style=&quot;&quot;&gt;Drink&lt;br&gt;&lt;br&gt;&lt;/u&gt;&lt;/b&gt;&lt;/font&gt;&lt;div style=&quot;line-height: 150%; font-size: 26px;&quot;&gt;&lt;font style=&quot;font-size: 26px;&quot;&gt;-size: String&lt;/font&gt;&lt;/div&gt;&lt;div style=&quot;line-height: 150%; font-size: 22px;&quot;&gt;&lt;font style=&quot;font-size: 22px;&quot;&gt;-price: double&lt;/font&gt;&lt;/div&gt;&lt;div style=&quot;line-height: 150%; font-size: 22px;&quot;&gt;&lt;font style=&quot;font-size: 22px;&quot;&gt;+Drink(size: String)&lt;/font&gt;&lt;/div&gt;&lt;div style=&quot;line-height: 150%; font-size: 22px;&quot;&gt;&lt;font style=&quot;font-size: 22px;&quot;&gt;+ calculatePrice(): double&lt;/font&gt;&lt;/div&gt;&lt;div style=&quot;line-height: 150%; font-size: 22px;&quot;&gt;&lt;font style=&quot;font-size: 22px;&quot;&gt;+displayDetails(): void&lt;/font&gt;&lt;/div&gt;" style="text;html=1;align=center;verticalAlign=middle;resizable=0;points=[];autosize=1;strokeColor=none;fillColor=none;fontSize=16;labelBackgroundColor=none;fontColor=#5AA9E6;" vertex="1" parent="zkfFHV4jXpPFQw0GAbJ--17">
          <mxGeometry y="34" width="437" height="245" as="geometry" />
        </mxCell>
        <mxCell id="IDmX4y72MfIabGnM_uea-24" style="edgeStyle=orthogonalEdgeStyle;rounded=0;orthogonalLoop=1;jettySize=auto;html=1;strokeWidth=11;curved=1;fillColor=#a20025;strokeColor=#6F0000;" edge="1" parent="WIyWlLk6GJQsqaUBKTNV-1" source="IDmX4y72MfIabGnM_uea-15">
          <mxGeometry relative="1" as="geometry">
            <mxPoint x="291" y="771.1428571428573" as="targetPoint" />
          </mxGeometry>
        </mxCell>
        <mxCell id="IDmX4y72MfIabGnM_uea-15" value="" style="swimlane;fontStyle=0;align=center;verticalAlign=top;childLayout=stackLayout;horizontal=1;startSize=26;horizontalStack=0;resizeParent=1;resizeLast=0;collapsible=1;marginBottom=0;rounded=0;shadow=0;strokeWidth=1;labelBackgroundColor=none;fillColor=#FFE45E;strokeColor=#FF6392;fontColor=#5AA9E6;swimlaneFillColor=default;" vertex="1" parent="WIyWlLk6GJQsqaUBKTNV-1">
          <mxGeometry x="-60" y="1000" width="614" height="284" as="geometry">
            <mxRectangle x="130" y="380" width="160" height="26" as="alternateBounds" />
          </mxGeometry>
        </mxCell>
        <mxCell id="IDmX4y72MfIabGnM_uea-16" value="" style="line;html=1;strokeWidth=1;align=left;verticalAlign=middle;spacingTop=-1;spacingLeft=3;spacingRight=3;rotatable=0;labelPosition=right;points=[];portConstraint=eastwest;labelBackgroundColor=none;fillColor=#FFE45E;strokeColor=#FF6392;fontColor=#5AA9E6;" vertex="1" parent="IDmX4y72MfIabGnM_uea-15">
          <mxGeometry y="26" width="614" height="8" as="geometry" />
        </mxCell>
        <mxCell id="IDmX4y72MfIabGnM_uea-18" value="&lt;font color=&quot;#ff0000&quot; style=&quot;font-size: 22px;&quot;&gt;&lt;b&gt;&lt;u&gt;Topping&lt;br&gt;&lt;br&gt;&lt;/u&gt;&lt;/b&gt;&lt;/font&gt;&lt;div style=&quot;font-size: 22px;&quot;&gt;&lt;font style=&quot;font-size: 22px;&quot;&gt;-name: String&lt;/font&gt;&lt;/div&gt;&lt;div style=&quot;font-size: 22px;&quot;&gt;&lt;font style=&quot;font-size: 22px;&quot;&gt;-isPremium: boolean&lt;/font&gt;&lt;/div&gt;&lt;div style=&quot;font-size: 22px;&quot;&gt;&lt;font style=&quot;font-size: 22px;&quot;&gt;-price: double&lt;/font&gt;&lt;/div&gt;&lt;div style=&quot;font-size: 22px;&quot;&gt;&lt;font style=&quot;font-size: 22px;&quot;&gt;+ Topping(name: String, isPremium: boolean, price: double)&lt;/font&gt;&lt;/div&gt;&lt;div style=&quot;font-size: 22px;&quot;&gt;&lt;font style=&quot;font-size: 22px;&quot;&gt;+ getName(): String&lt;/font&gt;&lt;/div&gt;&lt;div style=&quot;font-size: 22px;&quot;&gt;&lt;font style=&quot;font-size: 22px;&quot;&gt;+ isPremium(): boolean&lt;/font&gt;&lt;/div&gt;&lt;div style=&quot;font-size: 22px;&quot;&gt;&lt;font style=&quot;font-size: 22px;&quot;&gt;+ getPrice(): double&lt;/font&gt;&lt;/div&gt;" style="text;html=1;align=center;verticalAlign=middle;resizable=0;points=[];autosize=1;strokeColor=none;fillColor=none;fontSize=16;labelBackgroundColor=none;fontColor=#5AA9E6;" vertex="1" parent="IDmX4y72MfIabGnM_uea-15">
          <mxGeometry y="34" width="614" height="250" as="geometry" />
        </mxCell>
        <mxCell id="IDmX4y72MfIabGnM_uea-21" style="edgeStyle=orthogonalEdgeStyle;rounded=0;orthogonalLoop=1;jettySize=auto;html=1;entryX=0.999;entryY=0.787;entryDx=0;entryDy=0;entryPerimeter=0;strokeWidth=10;fillColor=#e51400;strokeColor=#B20000;curved=1;" edge="1" parent="WIyWlLk6GJQsqaUBKTNV-1">
          <mxGeometry relative="1" as="geometry">
            <mxPoint x="1852.44" y="595.3999999999999" as="sourcePoint" />
            <mxPoint x="1160.0000000000005" y="103.01199999999999" as="targetPoint" />
            <Array as="points">
              <mxPoint x="2084.44" y="595.8" />
              <mxPoint x="2084.44" y="239.8" />
              <mxPoint x="1350.44" y="239.8" />
              <mxPoint x="1350.44" y="102.8" />
            </Array>
          </mxGeometry>
        </mxCell>
      </root>
    </mxGraphModel>
  </diagram>
</mxfile>
